<svg width="770" height="496" viewBox="0 0 770 496" fill="none" xmlns="http://www.w3.org/2000/svg">
<g opacity="0.29827">
<path class="map-shore" d="M776.845 -6.4434C783.048 10.112 -9.80443 -29.1352 1.59197 -6.44342C9.84251 9.95119 23.8499 30.7421 35.8997 43.2164C42.9038 50.4634 50.5014 52.1267 57.5058 61.3932C63.3226 69.1155 61.0672 79.2142 68.0119 86.1638C79.8831 98.1037 100.005 98.2819 109.384 113.904C119.831 131.309 107.959 144.437 138.706 142.833C140.309 177.643 146.897 209.185 146.541 243.994C163.695 250.825 191.414 242.687 209.399 239.063C227.265 263.18 250.355 246.429 270.774 259.558C279.677 265.26 277.837 279.517 283.239 284.506C294.338 294.723 302.529 288.308 316.3 291.872C326.51 294.486 334.404 301.97 344.138 304.703C353.338 307.257 368.475 301.258 375.3 309.396C383.491 319.138 369.78 336.958 382.126 344.799C392.395 351.333 407.115 335.77 417.087 338.027C428.721 340.7 462.079 371.174 470.271 381.212C479.59 392.677 488.968 414.062 494.25 428.793C502.501 451.841 501.373 463.127 518.408 479.998C529.27 490.75 518.942 491.522 536.63 494.67C548.204 496.749 563.518 488.374 575.212 487.067C599.548 484.394 624.122 489.027 648.102 484.453C670.42 480.176 753.934 459.267 776.845 456C778.5 364.002 776.845 51 776.845 -6.4434Z" stroke="white" stroke-width="2" stroke-linecap="round" stroke-linejoin="round"/>
</g>
<path data-attr="some" id="sss" d="M498.114 83.9394C489.546 107.321 509.613 115.526 525.675 130.807C530.434 135.336 530.888 142.817 525.879 147.342C515.106 157.074 474.263 142.917 476.854 155.745C479.53 168.994 514.061 187.531 515.617 188.799C529.284 199.932 533.735 228.174 526.208 243.658C520.852 254.676 485.342 250.962 474.172 247.293C401.024 223.266 433.985 226.131 351.816 218.67C345.526 218.099 338.935 217.806 332.894 219.65C326.671 221.549 326.869 229.339 328.957 233.55C335.875 247.506 366.849 271.178 358.514 289.523C355.956 295.152 349.963 298.707 347.264 304.27C345.15 308.627 345.385 313.772 344.445 318.523" stroke="white" stroke-width="2"/>
<path class="map-path_2" d="M498 85.5C489.431 108.881 509.938 122.718 526 138C545.969 157 550.5 182.639 498 170C471 163.5 433.909 168.172 436.5 181C444.679 221.5 513.5 187 549 211.5C584.5 236 552 246 534.5 251C509 254.5 479 254.5 462.5 254.5C420.5 251 411.434 246.918 383 254.5C375.5 256.5 360.515 263.055 359.5 269C356 289.5 398 285.577 415 289.5C428 292.5 510.835 303.155 502.5 321.5C499.5 334 484 325.056 471.5 332C462.5 337 431.939 355.249 431 360" stroke="white" stroke-width="2"/>
<path class="map-path_3" d="M497.499 86C488.931 109.381 543.438 121.718 559.5 137C579.469 156 517.785 166.698 463.999 171.5C436 174 397.899 193.703 416.5 204C444.5 219.5 469.5 223 494.499 219.5C519.499 216 623 215 616.5 238C602 266 554 272.5 529 283.5C484.5 298.5 489.94 347.171 516 333.5C546.5 317.5 626.468 320.5 632.5 320.5C653 320.5 700 320.5 695 344.5C690 368.5 587.5 358.5 551.499 392C532.5 407 556.5 447.056 544 454C535 459 495.439 463.249 494.499 468" stroke="white" stroke-width="2"/>
<path class="map-path_4" d="M498 84C489.432 107.381 449.5 135 426.5 108C411 89.8043 407.5 74 378 74C358.5 74 346.263 83.9169 348.854 96.7452C351.935 112 373.443 131.476 378 141.5C383.454 153.5 378.5 198.5 359 186C339.5 173.5 316.5 101.508 302 96.7452C270.5 86.3983 298.5 138.5 235.5 129.799C219 127.521 202 137 197.5 159.67C194.06 177 192.5 192 192.5 203.5C192.5 234.5 135.439 220.749 134.5 225.5" stroke="white" stroke-width="2"/>
</svg>
