<svg width="208" height="276" viewBox="0 0 208 276" fill="none" xmlns="http://www.w3.org/2000/svg">
<path d="M140 0.5C131.431 23.8814 151.938 37.7181 168 53C187.969 72 192.5 97.6389 140 85C113 78.5 75.9089 83.1716 78.4997 96C86.6789 136.5 155.5 102 191 126.5C226.5 151 194 161 176.5 166C151 169.5 121 169.5 104.5 169.5C62.4997 166 53.4339 161.918 24.9997 169.5C17.4997 171.5 2.51471 178.055 1.4997 184C-2.00024 204.5 39.9996 200.577 56.9996 204.5C69.9996 207.5 152.835 218.155 144.5 236.5C141.5 249 126 240.056 113.5 247C104.5 252 73.9394 270.249 72.9997 275" stroke="white" stroke-width="2"/>
</svg>
