<svg width="205" height="236" viewBox="0 0 205 236" fill="none" xmlns="http://www.w3.org/2000/svg">
<path d="M172.114 0.939392C163.546 24.3208 183.613 32.5255 199.675 47.8074C204.434 52.3357 204.888 59.817 199.879 64.3424C189.106 74.0738 148.263 59.9168 150.854 72.7451C153.53 85.9943 188.061 104.531 189.617 105.799C203.284 116.932 207.735 145.174 200.208 160.658C194.852 171.676 159.342 167.962 148.172 164.293C75.0238 140.266 107.985 143.131 25.8165 135.67C19.5263 135.099 12.9346 134.806 6.89361 136.65C0.671175 138.549 0.86912 146.339 2.95689 150.55C9.8755 164.506 40.8487 188.178 32.5136 206.523C29.9561 212.152 23.9627 215.707 21.2642 221.27C19.1503 225.627 19.3847 230.772 18.4449 235.523" stroke="white" stroke-width="2"/>
</svg>
