<svg width="366" height="153" viewBox="0 0 366 153" xmlns="http://www.w3.org/2000/svg">
<path d="M365 11C356.432 34.3814 316.5 61.9999 293.5 34.9999C278 16.8043 274.5 0.999993 245 1C225.5 1 213.263 10.9169 215.854 23.7452C218.935 39 240.443 58.4756 245 68.5C250.454 80.5 245.5 125.5 226 113C206.5 100.5 183.5 28.5081 169 23.7452C137.5 13.3983 165.5 65.5 102.5 56.7995C85.9998 54.5208 68.9998 64 64.4998 86.6699C61.0597 104 59.4998 119 59.4998 130.5C59.4998 161.5 2.4395 147.749 1.49976 152.5" stroke="white" stroke-width="2"/>
</svg>
