<svg width="287" height="384" viewBox="0 0 287 384" fill="none" xmlns="http://www.w3.org/2000/svg">
<path d="M87.4994 1C78.9311 24.3814 133.438 36.7181 149.5 52C169.469 71 107.785 81.6976 53.9993 86.5C25.9996 89 -12.1009 108.703 6.49956 119C34.4998 134.5 59.4995 138 84.4994 134.5C109.499 131 213 130 206.5 153C192 181 144 187.5 119 198.5C74.4998 213.5 79.9398 262.171 106 248.5C136.5 232.5 216.468 235.5 222.5 235.5C243 235.5 290 235.5 285 259.5C280 283.5 177.5 273.5 141.499 307C122.5 322 146.5 362.056 134 369C125 374 85.4391 378.249 84.4994 383" stroke="white" stroke-width="2"/>
</svg>
