<svg width="770" height="496" viewBox="0 0 770 496" fill="none" xmlns="http://www.w3.org/2000/svg">
<path d="M776.845 -6.4434C783.048 10.112 -9.80443 -29.1352 1.59197 -6.44342C9.84251 9.95119 23.8499 30.7421 35.8997 43.2164C42.9038 50.4634 50.5014 52.1267 57.5058 61.3932C63.3226 69.1155 61.0672 79.2142 68.0119 86.1638C79.8831 98.1037 100.005 98.2819 109.384 113.904C119.831 131.309 107.959 144.437 138.706 142.833C140.309 177.643 146.897 209.185 146.541 243.994C163.695 250.825 191.414 242.687 209.399 239.063C227.265 263.18 250.355 246.429 270.774 259.558C279.677 265.26 277.837 279.517 283.239 284.506C294.338 294.723 302.529 288.308 316.3 291.872C326.51 294.486 334.404 301.97 344.138 304.703C353.338 307.257 368.475 301.258 375.3 309.396C383.491 319.138 369.78 336.958 382.126 344.799C392.395 351.333 407.115 335.77 417.087 338.027C428.721 340.7 462.079 371.174 470.271 381.212C479.59 392.677 488.968 414.062 494.25 428.793C502.501 451.841 501.373 463.127 518.408 479.998C529.27 490.75 518.942 491.522 536.63 494.67C548.204 496.749 563.518 488.374 575.212 487.067C599.548 484.394 624.122 489.027 648.102 484.453C670.42 480.176 753.934 459.267 776.845 456C778.5 364.002 776.845 51 776.845 -6.4434Z" stroke="white" stroke-width="2" stroke-linecap="round" stroke-linejoin="round"/>
</svg>
