<?xml version="1.0" encoding="utf-8"?>
<!-- Generator: Adobe Illustrator 14.0.0, SVG Export Plug-In . SVG Version: 6.00 Build 43363)  -->
<!DOCTYPE svg PUBLIC "-//W3C//DTD SVG 1.1//EN" "http://www.w3.org/Graphics/SVG/1.1/DTD/svg11.dtd">
<svg version="1.1"
	 id="virgin" xmlns:dc="http://purl.org/dc/elements/1.1/" xmlns:cc="http://web.resource.org/cc/" xmlns:rdf="http://www.w3.org/1999/02/22-rdf-syntax-ns#" xmlns:svg="http://www.w3.org/2000/svg" xmlns:sodipodi="http://sodipodi.sourceforge.net/DTD/sodipodi-0.dtd" xmlns:inkscape="http://www.inkscape.org/namespaces/inkscape" sodipodi:version="0.32" inkscape:version="0.45.1" sodipodi:docbase="C:\Users\Kyle J. Goldstein\Desktop" sodipodi:docname="Virgin.svg" inkscape:output_extension="org.inkscape.output.svg.inkscape"
	 xmlns="http://www.w3.org/2000/svg" xmlns:xlink="http://www.w3.org/1999/xlink" x="0px" y="0px" width="400px" height="300px"
	 viewBox="0 0 400 300" enable-background="new 0 0 400 300" xml:space="preserve">
<path id="virgin_1_" fill="#CC0001" d="M217.738,261.325c-1.137-2.126-1.586-14.989-1.277-36.612
	c0.262-18.335,0.238-33.335-0.054-33.333c-1.024,0.002-20.765,15.487-34.454,27.027c-7.607,6.411-19.913,18.01-27.346,25.772
	c-14.372,15.012-18.011,16.537-22.657,9.506c-2.239-3.39-1.877-4.125,6.322-12.84c10.815-11.496,32.989-30.268,57.518-48.69
	c18.817-14.136,26.405-22.065,18.44-19.277c-2.092,0.731-6.703,1.351-10.246,1.374c-9.084,0.063-11.105-4.175-9.877-20.695
	c1.138-15.283,2.783-19.977,9.418-26.854c8.932-9.261,17.222-5.245,9.621,4.662c-4.041,5.266-5.228,8.899-6.035,18.496
	c-0.844,10.033,0.756,13.281,5.336,10.83c3.779-2.021,4.955-6.894,6.298-26.093c1.022-14.663,3.34-19.692,9.071-19.692
	c1.68,0,3.438,1.002,3.908,2.226c0.471,1.224,0.262,12.939-0.463,26.035c-0.723,13.095-0.894,23.81-0.379,23.81
	c0.514,0,6.01-3.188,12.206-7.084c6.2-3.897,19.503-11.704,29.562-17.348c14.555-8.166,17.92-10.705,16.481-12.438
	c-1.223-1.471-1.446-6.925-0.69-16.824c1.233-16.203-0.08-18.191-7.092-10.729c-2.988,3.18-3.854,6.418-4.591,17.169
	c-0.657,9.6-1.771,14.348-4.042,17.234c-3.257,4.141-8.424,5.264-10.294,2.238c-0.594-0.961-0.549-9.869,0.099-19.795
	c1.037-15.869,1.639-18.507,4.979-21.847c2.447-2.448,5.713-3.798,9.178-3.798c3.498,0,6.043-1.067,7.286-3.058
	c1.05-1.681,4.185-3.849,6.962-4.818c4.301-1.5,5.53-1.286,8.245,1.429c2.743,2.743,3.19,5.468,3.19,19.368
	c0,8.896,0.705,16.61,1.568,17.143c0.859,0.532,5.069-0.79,9.354-2.939c4.284-2.149,9.181-3.688,10.882-3.42
	c3.021,0.475,5.783,3.389,5.833,6.152c0.06,3.25-10.072,10.237-18.899,13.035c-5.252,1.665-16.508,6.731-25.01,11.26
	c-8.501,4.528-17.288,9.192-19.525,10.368c-2.237,1.173-11.391,6.73-20.338,12.351l-16.271,10.218l-0.229,29.271
	c-0.127,16.099,0.553,33.798,1.51,39.33c1.369,7.906,1.289,10.604-0.377,12.611C227.79,265.752,219.872,265.314,217.738,261.325z
	 M109.7,240.445c-1.155-1.867-6.712-33.495-10.723-61.025c-4.218-28.943-5.112-30.516-9.63-16.938
	c-1.944,5.842-4.862,11.822-6.483,13.291c-3.099,2.804-7.503,2.136-8.837-1.34c-0.636-1.66,10.662-37.229,16.066-50.581
	c2.391-5.905,7.009-7.331,10.958-3.382c1.272,1.272,3.181,8.045,4.241,15.051s3.101,18.229,4.534,24.941
	c2.777,13.005,3.156,15.471,3.756,24.407l0.382,5.694l1.283-6.508c0.706-3.58,2.508-13.465,4.007-21.968
	c3.586-20.354,12.918-56.797,18.157-70.912c2.299-6.192,6.703-18.2,9.786-26.684c7.047-19.387,10.234-24.848,15.6-26.736
	c3.19-1.122,5.317-0.808,8.457,1.25c6.254,4.098,5.542,10.449-2.225,19.848c-7.038,8.518-17.186,31.599-22.853,51.979
	c-1.991,7.159-4.987,16.678-6.66,21.153c-3.179,8.506-5.895,19.685-7.134,29.365c-0.402,3.14-1.075,6.265-1.496,6.945
	c-0.421,0.682-1.17,5.604-1.664,10.938c-0.495,5.336-1.292,11.531-1.774,13.77c-0.482,2.238-1.997,12.489-3.365,22.78
	c-3.028,22.778-4.22,26.034-9.523,26.034C112.354,241.822,110.168,241.203,109.7,240.445z M140.708,198.288
	c-1.54-2.491,1.652-38.771,3.758-42.704c4.136-7.727,10.602-8.979,11.878-2.302c1.157,6.055-3.202,41.257-5.443,43.958
	C148.9,199.65,141.989,200.361,140.708,198.288z M164.766,184.707c-1.851-2.995,0.978-37.767,3.377-41.511
	c1.894-2.955,15.223-8.765,20.109-8.765c0.891,0,2.107,1.542,2.705,3.425c0.822,2.592-0.38,4.927-4.948,9.604
	c-5.73,5.869-6.089,6.874-7.105,19.951c-0.596,7.672-2.047,14.948-3.277,16.429C173.117,186.864,166.429,187.396,164.766,184.707z
	 M240.67,150.057c-0.997-1.203-1.482-4.663-1.074-7.687c0.407-3.024,1.223-11.279,1.813-18.344
	c0.887-10.617,1.763-13.535,5.048-16.821c3.313-3.312,4.394-3.629,6.474-1.903c1.686,1.399,2.207,3.691,1.607,7.058
	c-0.488,2.743-1.014,10.844-1.166,18.003c-0.338,15.698-0.623,16.574-6.364,19.543C243.229,151.859,242.188,151.885,240.67,150.057z
	 M150.099,133.727c-2.788-2.039-2.799-2.383-0.191-6.363c3.91-5.968,8.418-8.119,10.856-5.18c2.563,3.088,0.813,8.11-3.903,11.201
	C153.661,135.48,152.572,135.535,150.099,133.727z M247.04,89.721c0-4.581,6.679-9.894,10.563-8.403
	c5.934,2.277,0.19,12.434-7.031,12.434C247.896,93.752,247.04,92.773,247.04,89.721z"/>
</svg>
